<?xml version="1.0" encoding="iso-8859-1"?>
<!-- Generator: Adobe Illustrator 19.0.0, SVG Export Plug-In . SVG Version: 6.00 Build 0)  -->
<svg version="1.1" id="Layer_1" xmlns="http://www.w3.org/2000/svg" xmlns:xlink="http://www.w3.org/1999/xlink" x="0px" y="0px"
	 viewBox="0 0 512 512" style="enable-background:new 0 0 512 512;" xml:space="preserve">
<path style="fill:#046E4A;" d="M256,0C114.615,0,0,114.615,0,256c0,109.511,68.763,202.962,165.467,239.531l346.23-252.084
	C505.153,107.893,393.176,0,256,0z"/>
<path style="fill:#02432C;" d="M512,256c0-4.21-0.109-8.393-0.309-12.553l-88.734-88.734l-291.415-13.687L89.043,419.083
	l76.43,76.43C193.621,506.158,224.126,512,256,512C397.385,512,512,397.384,512,256z"/>
<polygon style="fill:#FFFFFF;" points="111.304,419.083 89.043,419.083 89.043,199.235 155.826,188.104 "/>
<g>
	<polygon style="fill:#98F0E7;" points="400.696,419.083 422.957,419.083 422.957,199.235 356.174,188.104 	"/>
	<polygon style="fill:#98F0E7;" points="422.957,154.713 244.87,165.843 256,44.522 	"/>
</g>
<polygon style="fill:#FFFFFF;" points="256,44.522 256,165.843 89.043,154.713 "/>
<polygon style="fill:#0DC2AF;" points="422.957,154.713 422.957,199.235 256,199.235 233.739,176.974 256,154.713 "/>
<rect x="89.043" y="154.713" style="fill:#34D8C7;" width="166.957" height="44.522"/>
<g>
</g>
<g>
</g>
<g>
</g>
<g>
</g>
<g>
</g>
<g>
</g>
<g>
</g>
<g>
</g>
<g>
</g>
<g>
</g>
<g>
</g>
<g>
</g>
<g>
</g>
<g>
</g>
<g>
</g>
</svg>
