<?xml version="1.0" encoding="iso-8859-1"?>
<!-- Generator: Adobe Illustrator 19.0.0, SVG Export Plug-In . SVG Version: 6.00 Build 0)  -->
<svg version="1.1" id="Layer_1" xmlns="http://www.w3.org/2000/svg" xmlns:xlink="http://www.w3.org/1999/xlink" x="0px" y="0px"
	 viewBox="0 0 512 512" style="enable-background:new 0 0 512 512;" xml:space="preserve">
<circle style="fill:#00EFD1;" cx="256" cy="256" r="256"/>
<path style="fill:#00AD95;" d="M512,256c0-26.655-4.078-52.357-11.637-76.521h-0.009c-0.632-2.017-1.279-4.027-1.958-6.023
	c-0.002-0.005-0.004-0.011-0.006-0.016h-73.65c-10.74,0-19.53,8.78-19.53,19.53c0,0.194,0.024,0.382,0.029,0.574L324.283,109
	H187.717c0,0-1.579,5.752-4.686,15.651L120.26,61.38c-3.54-3.54-8.42-5.74-13.79-5.74h-9.811c-0.836,0.665-1.668,1.334-2.495,2.01
	c-0.395,0.322-0.794,0.639-1.187,0.964c-1.371,1.133-2.728,2.284-4.074,3.445c-0.5,0.431-0.993,0.869-1.489,1.304
	c-0.912,0.798-1.819,1.601-2.719,2.412c-0.534,0.482-1.067,0.965-1.597,1.451c-0.905,0.829-1.802,1.666-2.695,2.508
	c-0.465,0.438-0.933,0.873-1.395,1.315c-1.285,1.23-2.559,2.472-3.818,3.729c-0.387,0.386-0.766,0.779-1.15,1.168
	c-0.913,0.923-1.822,1.85-2.72,2.786c-0.52,0.542-1.036,1.088-1.551,1.635c-0.766,0.812-1.527,1.63-2.282,2.452
	c-0.522,0.568-1.044,1.135-1.561,1.707c-0.825,0.914-1.64,1.837-2.452,2.763c-0.535,0.611-1.072,1.22-1.602,1.836
	c-0.989,1.149-1.968,2.307-2.937,3.474c-0.538,0.649-1.068,1.304-1.6,1.959c-0.621,0.764-1.24,1.53-1.853,2.3
	c-0.566,0.712-1.128,1.426-1.686,2.144c-0.571,0.734-1.135,1.474-1.698,2.214c-0.556,0.732-1.116,1.462-1.665,2.2
	c-0.67,0.902-1.328,1.813-1.987,2.724c-0.882,1.22-1.753,2.448-2.614,3.685c-0.354,0.509-0.709,1.017-1.06,1.529
	c0.173,5.105,2.322,9.72,5.709,13.107l96.181,96.138c-24.199,54.056-58.746,115.191-102.72,152.526l122.914,122.914
	C194.616,506.353,224.647,512,256,512C397.385,512,512,397.385,512,256z"/>
<path style="fill:#8A6746;" d="M324.283,109H187.717c0,0-50.84,185.219-143.777,264.125h424.12
	C375.122,294.219,324.283,109,324.283,109z"/>
<path style="fill:#5A422D;" d="M468.06,373.12H256V109h68.28C324.28,109,375.12,294.22,468.06,373.12z"/>
<path style="fill:#FF8900;" d="M256,512c101.218,0,188.705-58.748,230.252-144H25.748C67.295,453.252,154.782,512,256,512z"/>
<path style="fill:#E67500;" d="M486.25,368C444.71,453.25,357.22,512,256,512V368H486.25z"/>
<path style="fill:#FFE670;" d="M185.617,219.949c0,10.873,8.559,19.769,19.02,19.769h1.234c10.461,0,19.02-8.896,19.02-19.769
	v-32.482c1.888-9.213,9.799-16.181,19.204-16.181c9.406,0,17.317,6.968,19.204,16.181v72.086c0,10.873,8.559,19.769,19.02,19.769
	h1.235c10.461,0,19.02-8.896,19.02-19.769V149.782c1.888-9.213,9.799-16.181,19.204-16.181l0,0c4.199,0,8.092,1.401,11.294,3.758
	C327.253,119.827,324.28,109,324.28,109H187.717c0,0-0.705,2.569-2.1,7.228v64.529L185.617,219.949L185.617,219.949z"/>
<path style="fill:#FDC000;" d="M333.07,137.36c-1.6-1.18-3.37-2.12-5.27-2.76c-1.9-0.65-3.92-1-6.02-1
	c-9.41,0-17.32,6.97-19.2,16.18v109.77c0,10.88-8.56,19.77-19.02,19.77h-1.24c-10.46,0-19.02-8.89-19.02-19.77v-72.08
	c-0.99-4.84-3.64-9.06-7.3-11.97V109h68.28c0,0,0,0.01,0.01,0.03c0.01,0.04,0.03,0.1,0.05,0.2c0.11,0.37,0.34,1.19,0.69,2.42
	c0.09,0.3,0.18,0.63,0.29,0.98c0.25,0.88,0.56,1.91,0.9,3.09c0.23,0.74,0.47,1.54,0.73,2.4c0.31,1.03,0.65,2.14,1.02,3.33
	c0.15,0.51,0.31,1.03,0.48,1.56c1.01,3.24,2.2,6.97,3.56,11.14C332.35,135.2,332.71,136.26,333.07,137.36z"/>
<g>
	<path style="fill:#FFFFFF;" d="M159.75,110.67c0,10.74-8.79,19.52-19.53,19.52H64.28c-5.38,0-10.26-2.19-13.8-5.73
		c-3.39-3.39-5.54-8.01-5.71-13.12c14.44-21.05,31.94-39.83,51.87-55.7h9.83c5.37,0,10.25,2.2,13.79,5.74S126,69.8,126,75.17
		c0,6.58-3.32,12.43-8.35,15.97h22.57c5.37,0,10.25,2.2,13.79,5.74C157.55,100.42,159.75,105.3,159.75,110.67z"/>
	<path style="fill:#FFFFFF;" d="M511.87,247.99h-53.38c-5.37,0-10.25-2.19-13.79-5.73s-5.74-8.42-5.74-13.79
		c0-6.59,3.31-12.44,8.35-15.98h-22.57c-5.37,0-10.25-2.19-13.79-5.73s-5.74-8.42-5.74-13.79c0-10.75,8.79-19.53,19.53-19.53h73.65
		C506.4,196.94,511.08,221.98,511.87,247.99z"/>
</g>
<g>
</g>
<g>
</g>
<g>
</g>
<g>
</g>
<g>
</g>
<g>
</g>
<g>
</g>
<g>
</g>
<g>
</g>
<g>
</g>
<g>
</g>
<g>
</g>
<g>
</g>
<g>
</g>
<g>
</g>
</svg>
